<svg width="16" height="16" viewBox="0 0 16 16" fill="none" xmlns="http://www.w3.org/2000/svg">
<path d="M11.7741 15.1132C11.4207 15.1132 10.9674 14.9999 10.4007 14.6665L8.4074 13.4865C8.20073 13.3665 7.80073 13.3665 7.60073 13.4865L5.60073 14.6665C4.42073 15.3666 3.7274 15.0866 3.41406 14.8599C3.1074 14.6332 2.6274 14.0532 2.94073 12.7199L3.41406 10.6732C3.4674 10.4599 3.36073 10.0932 3.20073 9.93322L1.5474 8.27988C0.72073 7.45322 0.787396 6.74655 0.90073 6.39988C1.01406 6.05322 1.37406 5.43988 2.52073 5.24655L4.6474 4.89322C4.8474 4.85988 5.13406 4.64655 5.22073 4.46655L6.40073 2.11322C6.93406 1.03988 7.63406 0.879883 8.00073 0.879883C8.3674 0.879883 9.0674 1.03988 9.60073 2.11322L10.7741 4.45988C10.8674 4.63988 11.1541 4.85322 11.3541 4.88655L13.4807 5.23988C14.6341 5.43322 14.9941 6.04655 15.1007 6.39322C15.2074 6.73988 15.2741 7.44655 14.4541 8.27322L12.8007 9.93322C12.6407 10.0932 12.5407 10.4532 12.5874 10.6732L13.0607 12.7199C13.3674 14.0532 12.8941 14.6332 12.5874 14.8599C12.4207 14.9799 12.1541 15.1132 11.7741 15.1132ZM8.00073 12.3932C8.3274 12.3932 8.65406 12.4732 8.91406 12.6266L10.9074 13.8065C11.4874 14.1532 11.8541 14.1532 11.9941 14.0532C12.1341 13.9532 12.2341 13.5999 12.0874 12.9466L11.6141 10.8999C11.4874 10.3465 11.6941 9.63322 12.0941 9.22655L13.7474 7.57322C14.0741 7.24655 14.2207 6.92655 14.1541 6.70655C14.0807 6.48655 13.7741 6.30655 13.3207 6.23322L11.1941 5.87988C10.6807 5.79322 10.1207 5.37988 9.8874 4.91322L8.71406 2.56655C8.50073 2.13988 8.23406 1.88655 8.00073 1.88655C7.7674 1.88655 7.50073 2.13988 7.29406 2.56655L6.11406 4.91322C5.88073 5.37988 5.32073 5.79322 4.8074 5.87988L2.6874 6.23322C2.23406 6.30655 1.9274 6.48655 1.85406 6.70655C1.78073 6.92655 1.93406 7.25322 2.26073 7.57322L3.91406 9.22655C4.31406 9.62655 4.52073 10.3465 4.39406 10.8999L3.92073 12.9466C3.7674 13.6066 3.87406 13.9532 4.01406 14.0532C4.15406 14.1532 4.51406 14.1465 5.10073 13.8065L7.09406 12.6266C7.3474 12.4732 7.67406 12.3932 8.00073 12.3932Z" fill="#8A4BFF"/>
<path d="M3.99961 10.0001L1.99961 7.6001L1.59961 6.4001L2.39961 6.0001L4.79961 5.6001L5.99961 4.0001L7.59961 1.6001H8.79961L10.7996 5.2001L13.1996 5.6001L14.3996 6.4001V7.2001L11.9996 10.4001L12.7996 13.6001L12.3996 14.4001L11.5996 14.8001L7.99961 12.8001L5.59961 14.0001L3.99961 14.4001H3.59961L3.99961 10.0001Z" fill="#8A4BFF"/>
</svg>
