<svg width="35" height="35" viewBox="0 0 35 35" fill="none" xmlns="http://www.w3.org/2000/svg">
<path d="M24.7915 30.2591H10.2081C4.01022 30.2591 1.98314 28.407 1.8373 22.632C1.8373 22.3404 1.93939 22.0487 2.14355 21.8445C2.34772 21.6404 2.6248 21.5091 2.93105 21.5091C5.13314 21.5091 6.92689 19.7008 6.92689 17.4987C6.92689 15.2966 5.13314 13.4883 2.93105 13.4883C2.63939 13.4883 2.3623 13.3716 2.14355 13.1529C1.9248 12.9341 1.82272 12.657 1.8373 12.3654C1.98314 6.59036 4.01022 4.73828 10.2081 4.73828H24.7915C31.2227 4.73828 33.1769 6.69245 33.1769 13.1237V21.8737C33.1769 28.3049 31.2227 30.2591 24.7915 30.2591ZM4.06855 23.5945C4.31647 27.2987 5.57064 28.0716 10.2081 28.0716H24.7915C30.0123 28.0716 30.9894 27.0799 30.9894 21.8737V13.1237C30.9894 7.91745 30.0123 6.92578 24.7915 6.92578H10.2081C5.57064 6.92578 4.31647 7.71328 4.06855 11.4029C6.94147 11.957 9.11439 14.4799 9.11439 17.4987C9.11439 20.5174 6.94147 23.0404 4.06855 23.5945Z" fill="#102445"/>
<path d="M13.125 12.0299C12.5271 12.0299 12.0312 11.5341 12.0312 10.9362V5.83203C12.0312 5.23411 12.5271 4.73828 13.125 4.73828C13.7229 4.73828 14.2188 5.23411 14.2188 5.83203V10.9362C14.2188 11.5341 13.7229 12.0299 13.125 12.0299Z" fill="#102445"/>
<path d="M13.125 30.2604C12.5271 30.2604 12.0312 29.7646 12.0312 29.1667V24.0625C12.0312 23.4646 12.5271 22.9688 13.125 22.9688C13.7229 22.9688 14.2188 23.4646 14.2188 24.0625V29.1667C14.2188 29.7646 13.7229 30.2604 13.125 30.2604Z" fill="#102445"/>
<path d="M19.0164 22.8216C18.6664 22.8216 18.3164 22.7049 18.0247 22.5008C17.4997 22.1216 17.2372 21.4799 17.3539 20.8383L17.6601 19.1029L16.3914 17.8633C15.9247 17.4112 15.7643 16.7404 15.9539 16.1279C16.1581 15.5154 16.6831 15.0633 17.3247 14.9758L19.0747 14.7133L19.8622 13.1237C20.1539 12.5404 20.7372 12.1758 21.3789 12.1758C22.0351 12.1758 22.6185 12.5404 22.8956 13.1237L23.6831 14.7133L25.4331 14.9758C26.0747 15.0633 26.5997 15.5154 26.8039 16.1279C27.0081 16.7404 26.8331 17.4112 26.3664 17.8633L25.0976 19.1029L25.4039 20.8383C25.5206 21.4799 25.2581 22.1216 24.7331 22.5008C24.2081 22.8799 23.5226 22.9237 22.9539 22.632L21.3935 21.8154L19.8185 22.632C19.5706 22.7633 19.2935 22.8216 19.0164 22.8216ZM18.6226 16.9883L19.3664 17.7174C19.7747 18.1112 19.9497 18.6654 19.8622 19.2195L19.6872 20.2404L20.606 19.7591C21.1018 19.4966 21.6851 19.4966 22.181 19.7591L23.0997 20.2404L22.9247 19.2195C22.8372 18.6508 23.0122 18.0966 23.4206 17.7174L24.1643 16.9883L23.1435 16.8424C22.5893 16.7549 22.1081 16.4049 21.8601 15.9091L21.4081 14.9758L20.956 15.9091C20.7081 16.4049 20.2268 16.7549 19.6726 16.8424L18.6226 16.9883Z" fill="#1862D4"/>
</svg>
