<svg width="35" height="35" viewBox="0 0 35 35" fill="none" xmlns="http://www.w3.org/2000/svg">
<path d="M23.8872 33.1785H4.72469C3.33927 33.1785 2.05595 32.5368 1.2247 31.4139C0.378864 30.2764 0.130959 28.8472 0.553876 27.4909L6.69345 7.75963C7.24761 5.92213 8.9393 4.66797 10.8643 4.66797H28.8018C30.5664 4.66797 32.156 5.7181 32.8268 7.35143C33.1914 8.19726 33.2643 9.15979 33.0455 10.1077L28.131 29.8388C27.6643 31.8076 25.9143 33.1785 23.8872 33.1785ZM10.8789 6.87007C9.93094 6.87007 9.07053 7.49724 8.79345 8.41599L2.65388 28.1473C2.44971 28.8327 2.56637 29.5473 3.00387 30.1306C3.4122 30.6848 4.05387 31.0056 4.73929 31.0056H23.9018C24.9081 31.0056 25.783 30.3201 26.0164 29.343L30.9309 9.59714C31.0476 9.11589 31.0185 8.63471 30.8289 8.2118C30.4789 7.38055 29.706 6.85547 28.8164 6.85547H10.8789V6.87007Z" fill="#102445"/>
<path d="M30.3043 33.1785H23.3335C22.7356 33.1785 22.2397 32.6826 22.2397 32.0847C22.2397 31.4868 22.7356 30.991 23.3335 30.991H30.3043C30.9022 30.991 31.4564 30.7431 31.8648 30.3056C32.2731 29.8681 32.4772 29.2848 32.4335 28.6869L30.9897 8.82436C30.946 8.22645 31.3981 7.70138 31.996 7.65763C32.5939 7.62846 33.1189 8.06587 33.1626 8.66379L34.6064 28.5265C34.6939 29.7223 34.271 30.9181 33.4543 31.7931C32.6522 32.6827 31.5002 33.1785 30.3043 33.1785Z" fill="#102445"/>
<path d="M14.1162 10.3968C14.0287 10.3968 13.9413 10.3822 13.8538 10.3676C13.2704 10.2218 12.9059 9.6384 13.0517 9.04048L14.5683 2.74056C14.7142 2.15722 15.2975 1.79257 15.8954 1.9384C16.4787 2.08424 16.8434 2.66762 16.6975 3.26554L15.1808 9.56564C15.0642 10.0615 14.6121 10.3968 14.1162 10.3968Z" fill="#102445"/>
<path d="M23.8874 10.4143C23.8144 10.4143 23.7269 10.4143 23.654 10.3851C23.0707 10.2539 22.6915 9.67052 22.8082 9.08719L24.179 2.75807C24.3102 2.16016 24.8936 1.79564 25.4769 1.9123C26.0603 2.02897 26.4394 2.62673 26.3227 3.21006L24.9519 9.53936C24.8498 10.0644 24.3978 10.4143 23.8874 10.4143Z" fill="#102445"/>
<path d="M22.8962 18.5938H11.2295C10.6316 18.5938 10.1357 18.0979 10.1357 17.5C10.1357 16.9021 10.6316 16.4062 11.2295 16.4062H22.8962C23.4941 16.4062 23.9899 16.9021 23.9899 17.5C23.9899 18.0979 23.4941 18.5938 22.8962 18.5938Z" fill="#1862D4"/>
<path d="M21.4377 24.4258H9.771C9.17308 24.4258 8.67725 23.9299 8.67725 23.332C8.67725 22.7341 9.17308 22.2383 9.771 22.2383H21.4377C22.0356 22.2383 22.5314 22.7341 22.5314 23.332C22.5314 23.9299 22.0356 24.4258 21.4377 24.4258Z" fill="#1862D4"/>
</svg>
