<svg width="36" height="37" viewBox="0 0 36 37" fill="none" xmlns="http://www.w3.org/2000/svg">
<path d="M29.025 15.56C28.005 10.385 23.46 6.5 18 6.5C13.665 6.5 9.9 8.96 8.025 12.56C3.51 13.04 0 16.865 0 21.5C0 26.465 4.035 30.5 9 30.5H28.5C32.64 30.5 36 27.14 36 23C36 19.04 32.925 15.83 29.025 15.56ZM28.5 27.5H9C5.685 27.5 3 24.815 3 21.5C3 18.425 5.295 15.86 8.34 15.545L9.945 15.38L10.695 13.955C12.12 11.21 14.91 9.5 18 9.5C21.93 9.5 25.32 12.29 26.085 16.145L26.535 18.395L28.83 18.56C31.17 18.71 33 20.675 33 23C33 25.475 30.975 27.5 28.5 27.5ZM12 20H15.825V24.5H20.175V20H24L18 14L12 20Z" fill="#B1B1B1"/>
</svg>
