<svg width="26" height="26" viewBox="0 0 26 26" fill="none" xmlns="http://www.w3.org/2000/svg">
<path d="M24.3741 13.5417C24.3741 11.83 23.4262 10.3458 22.0471 9.64167C22.214 9.17042 22.305 8.66125 22.305 8.125C22.305 5.73083 20.4525 3.79383 18.1688 3.79383C17.6596 3.79383 17.1721 3.88483 16.7215 4.06467C16.052 2.61625 14.635 1.625 12.9991 1.625C11.3633 1.625 9.94846 2.61842 9.27571 4.0625C8.82613 3.88375 8.33755 3.79167 7.82838 3.79167C5.54255 3.79167 3.69221 5.73083 3.69221 8.125C3.69221 8.66017 3.78213 9.16933 3.94896 9.64167C2.57096 10.3458 1.62305 11.8278 1.62305 13.5417C1.62305 15.1613 2.47021 16.5728 3.72688 17.3182C3.70521 17.5023 3.69221 17.6865 3.69221 17.875C3.69221 20.2692 5.54255 22.2083 7.82838 22.2083C8.33755 22.2083 8.82505 22.1152 9.27463 21.9375C9.9463 23.3827 11.3611 24.375 12.998 24.375C14.636 24.375 16.0509 23.3827 16.7215 21.9375C17.171 22.1141 17.6585 22.2062 18.1688 22.2062C20.4546 22.2062 22.305 20.267 22.305 17.8728C22.305 17.6843 22.292 17.5002 22.2692 17.3171C23.5237 16.5728 24.3741 15.1613 24.3741 13.5428V13.5417ZM17.2068 9.92983L12.5116 16.9715C12.3545 17.2066 12.0978 17.3333 11.8345 17.3333C11.6796 17.3333 11.5225 17.29 11.3839 17.1968L11.2593 17.095L8.64305 14.4788C8.32563 14.1613 8.32563 13.6468 8.64305 13.3304C8.96046 13.0141 9.47505 13.0119 9.79138 13.3304L11.7089 15.2447L15.8526 9.02633C16.1018 8.65258 16.6066 8.554 16.9793 8.80208C17.3541 9.05125 17.456 9.55608 17.2068 9.92875V9.92983Z" fill="#1D9BF0"/>
</svg>
