<svg width="20" height="20" viewBox="0 0 20 20" fill="none" xmlns="http://www.w3.org/2000/svg">
<path d="M16.475 9.3763H13.1083C11.4333 9.3763 10.625 8.55964 10.625 6.89297V3.5263C10.625 1.8513 11.4417 1.04297 13.1083 1.04297H16.475C18.15 1.04297 18.9583 1.85964 18.9583 3.5263V6.89297C18.9583 8.55964 18.1417 9.3763 16.475 9.3763ZM13.1083 2.29297C12.125 2.29297 11.875 2.54297 11.875 3.5263V6.89297C11.875 7.8763 12.125 8.1263 13.1083 8.1263H16.475C17.4583 8.1263 17.7083 7.8763 17.7083 6.89297V3.5263C17.7083 2.54297 17.4583 2.29297 16.475 2.29297H13.1083Z" fill="#102445" fill-opacity="0.7"/>
<path d="M6.89199 9.3763H3.52533C1.85033 9.3763 1.04199 8.63464 1.04199 7.1013V3.31797C1.04199 1.78464 1.85866 1.04297 3.52533 1.04297H6.89199C8.56699 1.04297 9.37533 1.78464 9.37533 3.31797V7.09297C9.37533 8.63464 8.55866 9.3763 6.89199 9.3763ZM3.52533 2.29297C2.40866 2.29297 2.29199 2.60964 2.29199 3.31797V7.09297C2.29199 7.80964 2.40866 8.11797 3.52533 8.11797H6.89199C8.00866 8.11797 8.12533 7.8013 8.12533 7.09297V3.31797C8.12533 2.6013 8.00866 2.29297 6.89199 2.29297H3.52533Z" fill="#102445" fill-opacity="0.7"/>
<path d="M6.89199 18.9583H3.52533C1.85033 18.9583 1.04199 18.1417 1.04199 16.475V13.1083C1.04199 11.4333 1.85866 10.625 3.52533 10.625H6.89199C8.56699 10.625 9.37533 11.4417 9.37533 13.1083V16.475C9.37533 18.1417 8.55866 18.9583 6.89199 18.9583ZM3.52533 11.875C2.54199 11.875 2.29199 12.125 2.29199 13.1083V16.475C2.29199 17.4583 2.54199 17.7083 3.52533 17.7083H6.89199C7.87533 17.7083 8.12533 17.4583 8.12533 16.475V13.1083C8.12533 12.125 7.87533 11.875 6.89199 11.875H3.52533Z" fill="#102445" fill-opacity="0.7"/>
<path d="M17.5 13.543H12.5C12.1583 13.543 11.875 13.2596 11.875 12.918C11.875 12.5763 12.1583 12.293 12.5 12.293H17.5C17.8417 12.293 18.125 12.5763 18.125 12.918C18.125 13.2596 17.8417 13.543 17.5 13.543Z" fill="#102445" fill-opacity="0.7"/>
<path d="M17.5 16.875H12.5C12.1583 16.875 11.875 16.5917 11.875 16.25C11.875 15.9083 12.1583 15.625 12.5 15.625H17.5C17.8417 15.625 18.125 15.9083 18.125 16.25C18.125 16.5917 17.8417 16.875 17.5 16.875Z" fill="#102445" fill-opacity="0.7"/>
</svg>
