<svg width="20" height="20" viewBox="0 0 20 20" fill="none" xmlns="http://www.w3.org/2000/svg">
<path d="M14.6661 18.8H5.33281C3.81615 18.8 2.43281 17.6333 2.18281 16.1417L1.07448 9.50001C0.891145 8.46668 1.39948 7.14168 2.22448 6.48335L7.99948 1.85835C9.11615 0.958348 10.8745 0.966681 11.9995 1.86668L17.7745 6.48335C18.5911 7.14168 19.0911 8.46668 18.9245 9.50001L17.8161 16.1333C17.5661 17.6083 16.1495 18.8 14.6661 18.8ZM9.99115 2.44168C9.54948 2.44168 9.10781 2.57501 8.78281 2.83335L3.00781 7.46668C2.54115 7.84168 2.20781 8.70835 2.30781 9.30001L3.41615 15.9333C3.56615 16.8083 4.44115 17.55 5.33281 17.55H14.6661C15.5578 17.55 16.4328 16.8083 16.5828 15.925L17.6911 9.29168C17.7828 8.70835 17.4495 7.82501 16.9911 7.45835L11.2161 2.84168C10.8828 2.57501 10.4328 2.44168 9.99115 2.44168Z" fill="#292D32" fill-opacity="0.7"/>
<path d="M8.33333 10.8346C7.86667 10.8346 7.5 10.4596 7.5 10.0013C7.5 9.54297 7.875 9.16797 8.33333 9.16797C8.79167 9.16797 9.16667 9.54297 9.16667 10.0013C9.16667 10.4596 8.8 10.8346 8.33333 10.8346Z" fill="#292D32" fill-opacity="0.7"/>
<path d="M11.6673 10.8346C11.2007 10.8346 10.834 10.4596 10.834 10.0013C10.834 9.54297 11.209 9.16797 11.6673 9.16797C12.1257 9.16797 12.5007 9.54297 12.5007 10.0013C12.5007 10.4596 12.134 10.8346 11.6673 10.8346Z" fill="#292D32" fill-opacity="0.7"/>
<path d="M8.33333 14.1667C7.86667 14.1667 7.5 13.7917 7.5 13.3333C7.5 12.875 7.875 12.5 8.33333 12.5C8.79167 12.5 9.16667 12.875 9.16667 13.3333C9.16667 13.7917 8.8 14.1667 8.33333 14.1667Z" fill="#292D32" fill-opacity="0.7"/>
<path d="M11.6673 14.1667C11.2007 14.1667 10.834 13.7917 10.834 13.3333C10.834 12.875 11.209 12.5 11.6673 12.5C12.1257 12.5 12.5007 12.875 12.5007 13.3333C12.5007 13.7917 12.134 14.1667 11.6673 14.1667Z" fill="#292D32" fill-opacity="0.7"/>
</svg>
