<svg width="20" height="20" viewBox="0 0 20 20" fill="none" xmlns="http://www.w3.org/2000/svg">
<path d="M12.5003 18.9596H7.50033C2.97533 18.9596 1.04199 17.0263 1.04199 12.5013V7.5013C1.04199 2.9763 2.97533 1.04297 7.50033 1.04297H9.16699C9.50866 1.04297 9.79199 1.3263 9.79199 1.66797C9.79199 2.00964 9.50866 2.29297 9.16699 2.29297H7.50033C3.65866 2.29297 2.29199 3.65964 2.29199 7.5013V12.5013C2.29199 16.343 3.65866 17.7096 7.50033 17.7096H12.5003C16.342 17.7096 17.7087 16.343 17.7087 12.5013V10.8346C17.7087 10.493 17.992 10.2096 18.3337 10.2096C18.6753 10.2096 18.9587 10.493 18.9587 10.8346V12.5013C18.9587 17.0263 17.0253 18.9596 12.5003 18.9596Z" fill="#292D32"/>
<path d="M7.08311 14.7424C6.57478 14.7424 6.10811 14.5591 5.76645 14.2258C5.35811 13.8174 5.18311 13.2258 5.27478 12.6008L5.63311 10.0924C5.69978 9.60911 6.01645 8.98411 6.35811 8.64245L12.9248 2.07578C14.5831 0.417448 16.2664 0.417448 17.9248 2.07578C18.8331 2.98411 19.2414 3.90911 19.1581 4.83411C19.0831 5.58411 18.6831 6.31745 17.9248 7.06745L11.3581 13.6341C11.0164 13.9758 10.3914 14.2924 9.90811 14.3591L7.39978 14.7174C7.29145 14.7424 7.18311 14.7424 7.08311 14.7424ZM13.8081 2.95911L7.24145 9.52578C7.08311 9.68411 6.89978 10.0508 6.86645 10.2674L6.50811 12.7758C6.47478 13.0174 6.52478 13.2174 6.64978 13.3424C6.77478 13.4674 6.97478 13.5174 7.21645 13.4841L9.72478 13.1258C9.94145 13.0924 10.3164 12.9091 10.4664 12.7508L17.0331 6.18411C17.5748 5.64245 17.8581 5.15911 17.8998 4.70911C17.9498 4.16745 17.6664 3.59245 17.0331 2.95078C15.6998 1.61745 14.7831 1.99245 13.8081 2.95911Z" fill="#292D32"/>
<path d="M16.5413 8.19319C16.483 8.19319 16.4246 8.18486 16.3746 8.16819C14.183 7.55153 12.4413 5.80986 11.8246 3.61819C11.733 3.28486 11.9246 2.94319 12.258 2.84319C12.5913 2.75153 12.933 2.94319 13.0246 3.27653C13.5246 5.05153 14.933 6.45986 16.708 6.95986C17.0413 7.05153 17.233 7.40153 17.1413 7.73486C17.0663 8.01819 16.8163 8.19319 16.5413 8.19319Z" fill="#292D32"/>
</svg>
