<svg width="20" height="20" viewBox="0 0 20 20" fill="none" xmlns="http://www.w3.org/2000/svg">
<path d="M14.4835 17.2898H9.0918C8.75013 17.2898 8.4668 17.0065 8.4668 16.6648C8.4668 16.3232 8.75013 16.0398 9.0918 16.0398H14.4835C17.0335 16.0398 17.6335 15.6232 17.7001 13.3565C16.6001 13.0732 15.7835 12.0732 15.7835 10.8898C15.7835 9.69818 16.6001 8.68984 17.7085 8.40651V8.18984C17.7085 5.44818 17.2251 4.96484 14.4835 4.96484H9.7918V9.99818C9.7918 10.3398 9.50846 10.6232 9.1668 10.6232C8.82513 10.6232 8.5418 10.3398 8.5418 9.99818V4.33984C8.5418 3.99818 8.82513 3.71484 9.1668 3.71484H14.4835C17.9168 3.71484 18.9585 4.75651 18.9585 8.18984V8.95651C18.9585 9.29818 18.6751 9.58151 18.3335 9.58151C17.6168 9.58151 17.0335 10.1648 17.0335 10.8898C17.0335 11.6065 17.6168 12.1898 18.3335 12.1898C18.6751 12.1898 18.9585 12.4732 18.9585 12.8148C18.9585 16.2482 17.9168 17.2898 14.4835 17.2898Z" fill="#292D32" fill-opacity="0.7"/>
<path d="M9.16605 17.2899H6.85772C5.17439 17.2899 4.30772 16.0232 3.51605 14.1232L3.35772 13.7399C3.29939 13.5899 3.29939 13.4149 3.36605 13.2649C3.43272 13.1149 3.55772 12.9899 3.70772 12.9316C4.04105 12.7982 4.29939 12.5399 4.44105 12.2149C4.58272 11.8816 4.58272 11.5149 4.44105 11.1816C4.16605 10.4816 3.37439 10.1566 2.67439 10.4316C2.51605 10.4982 2.34939 10.4899 2.19105 10.4232C2.04105 10.3566 1.91605 10.2316 1.85772 10.0816L1.71605 9.72323C0.38272 6.48156 0.966054 5.08989 4.20772 3.74823L6.40772 2.84823C6.72439 2.71489 7.09105 2.87323 7.22439 3.18989L9.74939 9.30656C9.78272 9.38156 9.79939 9.46489 9.79939 9.54823V11.6649C9.79939 12.0066 9.51605 12.2899 9.17439 12.2899C8.83272 12.2899 8.54939 12.0066 8.54939 11.6649V9.66489L6.29939 4.23989L4.68272 4.90656C2.11605 5.96489 1.80772 6.61489 2.81605 9.11489C3.97439 8.94823 5.14105 9.57323 5.59939 10.6982C5.86605 11.3399 5.86605 12.0482 5.59105 12.6899C5.40772 13.1316 5.10772 13.5066 4.72439 13.7816C5.52439 15.6649 6.10772 16.0399 6.84939 16.0399H8.53272V14.1649C8.53272 13.8232 8.81605 13.5399 9.15772 13.5399C9.49939 13.5399 9.78272 13.8232 9.78272 14.1649V16.6649C9.79105 17.0066 9.50772 17.2899 9.16605 17.2899Z" fill="#292D32" fill-opacity="0.7"/>
<path d="M6.80768 17.293H6.66602C6.32435 17.293 6.04102 17.0096 6.04102 16.668C6.04102 16.3263 6.32435 16.043 6.66602 16.043H6.80768C7.14935 16.043 7.43268 16.3263 7.43268 16.668C7.43268 17.0096 7.14935 17.293 6.80768 17.293Z" fill="#292D32" fill-opacity="0.7"/>
</svg>
