<svg width="26" height="26" viewBox="0 0 26 26" fill="none" xmlns="http://www.w3.org/2000/svg">
<ellipse cx="13.5" cy="14" rx="6.5" ry="6" fill="white"/>
<path fill-rule="evenodd" clip-rule="evenodd" d="M15.7456 4.54735L12.999 1.89062L10.2525 4.54735L6.4695 4.01199L5.80887 7.7749L2.43359 9.56653L4.11178 12.9997L2.43359 16.4317L5.80887 18.2234L6.4695 21.9863L10.2525 21.4521L12.999 24.1088L15.7456 21.4521L19.5286 21.9863L20.1892 18.2234L23.5645 16.4317L21.8863 12.9997L23.5645 9.56653L20.1892 7.7749L19.5286 4.01199L15.7456 4.54735ZM7.3665 13.4996L11.4178 17.5509L18.134 10.2165L16.5421 8.74281L11.3421 14.4096L8.89341 11.9609L7.3665 13.4996Z" fill="url(#paint0_linear_2501_169814)"/>
<path fill-rule="evenodd" clip-rule="evenodd" d="M15.4821 5.35576L12.9991 2.95312L10.5161 5.35576L7.09477 4.87122L6.49795 8.27485L3.44531 9.89394L4.96277 12.9986L3.44531 16.1032L6.49795 17.7223L7.09477 21.1259L10.5161 20.6414L12.9991 23.044L15.4821 20.6414L18.9035 21.1259L19.5003 17.7223L22.5529 16.1032L21.0355 12.9986L22.5529 9.89394L19.5003 8.27485L18.9035 4.87122L15.4821 5.35576ZM7.3654 13.4985L11.4179 17.5498L18.1341 10.2154L16.5422 8.74167L11.3422 14.4085L8.89349 11.9598L7.3654 13.4985Z" fill="url(#paint1_linear_2501_169814)"/>
<path fill-rule="evenodd" clip-rule="evenodd" d="M7.36487 13.4983L11.4173 17.5496L18.0946 10.2577L18.1395 10.2188L18.1336 11.8709L11.4173 19.2053L7.36487 15.1528L7.36133 13.4924L7.36724 13.4959L7.36487 13.4983Z" fill="#D18800"/>
<defs>
<linearGradient id="paint0_linear_2501_169814" x1="5.21205" y1="2.94835" x2="21.3699" y2="25.4183" gradientUnits="userSpaceOnUse">
<stop stop-color="#F4E72A"/>
<stop offset="0.539" stop-color="#CD8105"/>
<stop offset="0.68" stop-color="#CB7B00"/>
<stop offset="1" stop-color="#F4E72A"/>
</linearGradient>
<linearGradient id="paint1_linear_2501_169814" x1="6.32777" y1="4.01085" x2="19.3349" y2="22.6103" gradientUnits="userSpaceOnUse">
<stop stop-color="#F9E87F"/>
<stop offset="0.406" stop-color="#E2B719"/>
<stop offset="0.989" stop-color="#E2B719"/>
</linearGradient>
</defs>
</svg>
