<svg width="20" height="20" viewBox="0 0 20 20" fill="none" xmlns="http://www.w3.org/2000/svg">
<path d="M12.7167 18.5403H7.28332C3.19165 18.5403 1.44165 16.7903 1.44165 12.6986V12.5903C1.44165 8.89026 2.89998 7.10693 6.16665 6.7986C6.49998 6.7736 6.81665 7.0236 6.84998 7.36526C6.88332 7.70693 6.63332 8.01526 6.28332 8.0486C3.66665 8.29026 2.69165 9.5236 2.69165 12.5986V12.7069C2.69165 16.0986 3.89165 17.2986 7.28332 17.2986H12.7167C16.1083 17.2986 17.3083 16.0986 17.3083 12.7069V12.5986C17.3083 9.50693 16.3166 8.2736 13.65 8.0486C13.3083 8.01526 13.05 7.71526 13.0833 7.3736C13.1166 7.03193 13.4083 6.7736 13.7583 6.80693C17.075 7.09026 18.5583 8.88193 18.5583 12.6069V12.7153C18.5583 16.7903 16.8083 18.5403 12.7167 18.5403Z" fill="#292D32"/>
<path d="M10 13.0263C9.65833 13.0263 9.375 12.743 9.375 12.4013V1.66797C9.375 1.3263 9.65833 1.04297 10 1.04297C10.3417 1.04297 10.625 1.3263 10.625 1.66797V12.4013C10.625 12.7513 10.3417 13.0263 10 13.0263Z" fill="#292D32"/>
<path d="M10 13.9576C9.8417 13.9576 9.68337 13.8992 9.55837 13.7742L6.7667 10.9826C6.52503 10.7409 6.52503 10.3409 6.7667 10.0992C7.00837 9.85755 7.40837 9.85755 7.65003 10.0992L10 12.4492L12.35 10.0992C12.5917 9.85755 12.9917 9.85755 13.2334 10.0992C13.475 10.3409 13.475 10.7409 13.2334 10.9826L10.4417 13.7742C10.3167 13.8992 10.1584 13.9576 10 13.9576Z" fill="#292D32"/>
</svg>
