<svg width="20" height="20" viewBox="0 0 20 20" fill="none" xmlns="http://www.w3.org/2000/svg">
<path d="M9.99935 18.9596C9.34935 18.9596 8.71602 18.6263 8.28268 18.043L7.44102 16.918C7.26602 16.6846 7.03268 16.5513 6.78268 16.5346C6.53268 16.5263 6.28268 16.6346 6.08268 16.843L5.60768 16.418L6.06602 16.843C4.86602 18.1263 3.94102 18.0263 3.49935 17.8513C3.04935 17.6763 2.29102 17.1013 2.29102 15.2513V5.86797C2.29102 2.16797 3.35768 1.04297 6.84935 1.04297H13.1493C16.641 1.04297 17.7077 2.16797 17.7077 5.86797V15.2513C17.7077 17.093 16.9493 17.668 16.4993 17.8513C16.0577 18.0263 15.141 18.1263 13.9327 16.843C13.7327 16.6263 13.4827 16.5096 13.2243 16.5346C12.9743 16.5513 12.7327 16.6846 12.5577 16.918L11.716 18.043C11.2827 18.6263 10.6493 18.9596 9.99935 18.9596ZM6.73268 15.2763C6.76602 15.2763 6.80768 15.2763 6.84102 15.2763C7.45768 15.3096 8.04102 15.6346 8.43268 16.1596L9.27435 17.2846C9.68268 17.8263 10.3077 17.8263 10.716 17.2846L11.5577 16.1596C11.9577 15.6346 12.5327 15.3096 13.1577 15.2763C13.7743 15.243 14.391 15.5013 14.841 15.9846C15.4743 16.6596 15.8827 16.743 16.0327 16.6846C16.2327 16.6013 16.4493 16.118 16.4493 15.2513V5.86797C16.4493 2.85964 15.9243 2.29297 13.141 2.29297H6.84935C4.06602 2.29297 3.54102 2.85964 3.54102 5.86797V15.2513C3.54102 16.1263 3.75768 16.6096 3.95768 16.6846C4.09935 16.743 4.51602 16.6596 5.14935 15.9846C5.59935 15.5263 6.15768 15.2763 6.73268 15.2763Z" fill="#292D32" fill-opacity="0.7"/>
<path d="M13.5247 9.79297H8.94141C8.59974 9.79297 8.31641 9.50964 8.31641 9.16797C8.31641 8.8263 8.59974 8.54297 8.94141 8.54297H13.5247C13.8664 8.54297 14.1497 8.8263 14.1497 9.16797C14.1497 9.50964 13.8664 9.79297 13.5247 9.79297Z" fill="#292D32" fill-opacity="0.7"/>
<path d="M13.5247 6.45703H8.94141C8.59974 6.45703 8.31641 6.1737 8.31641 5.83203C8.31641 5.49036 8.59974 5.20703 8.94141 5.20703H13.5247C13.8664 5.20703 14.1497 5.49036 14.1497 5.83203C14.1497 6.1737 13.8664 6.45703 13.5247 6.45703Z" fill="#292D32" fill-opacity="0.7"/>
<path d="M6.48372 6.66667C6.02539 6.66667 5.65039 6.29167 5.65039 5.83333C5.65039 5.375 6.02539 5 6.48372 5C6.94206 5 7.31706 5.375 7.31706 5.83333C7.31706 6.29167 6.94206 6.66667 6.48372 6.66667Z" fill="#292D32" fill-opacity="0.7"/>
<path d="M6.48372 9.9987C6.02539 9.9987 5.65039 9.6237 5.65039 9.16536C5.65039 8.70703 6.02539 8.33203 6.48372 8.33203C6.94206 8.33203 7.31706 8.70703 7.31706 9.16536C7.31706 9.6237 6.94206 9.9987 6.48372 9.9987Z" fill="#292D32" fill-opacity="0.7"/>
</svg>
