<svg width="16" height="16" viewBox="0 0 16 16" fill="none" xmlns="http://www.w3.org/2000/svg">
<path d="M7.91068 14.3076C4.35976 14.3076 1.46875 11.4854 1.46875 8.01901C1.46875 4.55265 4.35976 1.73047 7.91068 1.73047C11.4616 1.73047 14.3526 4.55265 14.3526 8.01901C14.3526 11.4854 11.4616 14.3076 7.91068 14.3076ZM7.91068 2.65074C4.87511 2.65074 2.41147 5.06186 2.41147 8.01901C2.41147 10.9762 4.87511 13.3873 7.91068 13.3873C10.9462 13.3873 13.4099 10.9762 13.4099 8.01901C13.4099 5.06186 10.9462 2.65074 7.91068 2.65074Z" fill="black" fill-opacity="0.5"/>
<path d="M14.51 14.9231C14.3905 14.9231 14.2711 14.8802 14.1769 14.7881L12.9199 13.5611C12.7376 13.3832 12.7376 13.0887 12.9199 12.9108C13.1022 12.7329 13.4038 12.7329 13.5861 12.9108L14.843 14.1378C15.0253 14.3157 15.0253 14.6102 14.843 14.7881C14.7488 14.8802 14.6294 14.9231 14.51 14.9231Z" fill="black" fill-opacity="0.5"/>
</svg>
