<svg width="26" height="26" viewBox="0 0 26 26" fill="none" xmlns="http://www.w3.org/2000/svg">
<ellipse cx="13" cy="12.5" rx="6" ry="6.5" fill="white"/>
<path fill-rule="evenodd" clip-rule="evenodd" d="M14.2414 2.42953C13.5701 1.71099 12.4309 1.71099 11.7596 2.42953L10.1133 4.19044C9.77767 4.54853 9.30376 4.7459 8.81331 4.72817L6.40594 4.64662C5.42267 4.61353 4.61667 5.41953 4.64976 6.40281L4.73131 8.81253C4.74785 9.30299 4.55167 9.7769 4.1924 10.1125L2.43149 11.7576C1.71294 12.4289 1.71294 13.5694 2.43149 14.2406L4.1924 15.8869C4.55167 16.2225 4.74785 16.6953 4.73131 17.1869L4.64858 19.5954C4.61667 20.5787 5.42267 21.3847 6.40594 21.3516L8.81449 21.2701C9.30494 21.2535 9.77885 21.4497 10.1145 21.8078L11.7596 23.5687C12.432 24.2884 13.5713 24.2884 14.2438 23.5687L15.89 21.8078C16.2245 21.4497 16.6984 21.2523 17.1889 21.2701L19.5974 21.3516C20.5807 21.3847 21.3879 20.5787 21.3536 19.5954L21.2732 17.1857C21.2555 16.6953 21.4529 16.2225 21.8109 15.8869L23.5719 14.2406C24.2904 13.5694 24.2904 12.4289 23.5719 11.7576L21.8109 10.1114C21.4529 9.7769 21.2555 9.30299 21.2732 8.81135L21.3536 6.40281C21.3879 5.41953 20.5807 4.61353 19.5974 4.64662L17.1889 4.72935C16.6984 4.74472 16.2245 4.54853 15.8889 4.19044L14.2414 2.42953ZM7.36676 13.4996L11.4192 17.5509L18.1355 10.2165L16.5436 8.74281L11.3436 14.4096L8.89485 11.9609L7.36676 13.4996Z" fill="#829AAB"/>
</svg>
