<svg width="20" height="20" viewBox="0 0 20 20" fill="none" xmlns="http://www.w3.org/2000/svg">
<path d="M14.7171 18.8932C14.2754 18.8932 13.7088 18.7516 13.0004 18.3349L10.5088 16.8599C10.2504 16.7099 9.75042 16.7099 9.50042 16.8599L7.00042 18.3349C5.52542 19.2099 4.65876 18.8599 4.26709 18.5766C3.88376 18.2932 3.28376 17.5682 3.67542 15.9016L4.26709 13.3432C4.33376 13.0766 4.20042 12.6182 4.00042 12.4182L1.93376 10.3516C0.900424 9.31823 0.983757 8.4349 1.12542 8.00156C1.26709 7.56823 1.71709 6.80156 3.15042 6.5599L5.80876 6.11823C6.05876 6.07656 6.41709 5.8099 6.52542 5.5849L8.00042 2.64323C8.66709 1.30156 9.54209 1.10156 10.0004 1.10156C10.4588 1.10156 11.3338 1.30156 12.0004 2.64323L13.4671 5.57656C13.5838 5.80156 13.9421 6.06823 14.1921 6.1099L16.8504 6.55156C18.2921 6.79323 18.7421 7.5599 18.8754 7.99323C19.0088 8.42656 19.0921 9.3099 18.0671 10.3432L16.0004 12.4182C15.8004 12.6182 15.6754 13.0682 15.7338 13.3432L16.3254 15.9016C16.7088 17.5682 16.1171 18.2932 15.7338 18.5766C15.5254 18.7266 15.1921 18.8932 14.7171 18.8932ZM10.0004 15.4932C10.4088 15.4932 10.8171 15.5932 11.1421 15.7849L13.6338 17.2599C14.3588 17.6932 14.8171 17.6932 14.9921 17.5682C15.1671 17.4432 15.2921 17.0016 15.1088 16.1849L14.5171 13.6266C14.3588 12.9349 14.6171 12.0432 15.1171 11.5349L17.1838 9.46823C17.5921 9.0599 17.7754 8.6599 17.6921 8.3849C17.6004 8.1099 17.2171 7.8849 16.6504 7.79323L13.9921 7.35156C13.3504 7.24323 12.6504 6.72656 12.3588 6.14323L10.8921 3.2099C10.6254 2.67656 10.2921 2.3599 10.0004 2.3599C9.70876 2.3599 9.37542 2.67656 9.11709 3.2099L7.64209 6.14323C7.35042 6.72656 6.65042 7.24323 6.00876 7.35156L3.35876 7.79323C2.79209 7.8849 2.40876 8.1099 2.31709 8.3849C2.22542 8.6599 2.41709 9.06823 2.82542 9.46823L4.89209 11.5349C5.39209 12.0349 5.65042 12.9349 5.49209 13.6266L4.90042 16.1849C4.70876 17.0099 4.84209 17.4432 5.01709 17.5682C5.19209 17.6932 5.64209 17.6849 6.37542 17.2599L8.86709 15.7849C9.18376 15.5932 9.59209 15.4932 10.0004 15.4932Z" fill="#102445" fill-opacity="0.6"/>
</svg>
