<svg width="20" height="20" viewBox="0 0 20 20" fill="none" xmlns="http://www.w3.org/2000/svg">
<path d="M17.4993 16.875H9.16602C8.82435 16.875 8.54102 16.5917 8.54102 16.25C8.54102 15.9083 8.82435 15.625 9.16602 15.625H17.4993C17.841 15.625 18.1243 15.9083 18.1243 16.25C18.1243 16.5917 17.841 16.875 17.4993 16.875Z" fill="#292D32" fill-opacity="0.7"/>
<path d="M17.4993 11.043H9.16602C8.82435 11.043 8.54102 10.7596 8.54102 10.418C8.54102 10.0763 8.82435 9.79297 9.16602 9.79297H17.4993C17.841 9.79297 18.1243 10.0763 18.1243 10.418C18.1243 10.7596 17.841 11.043 17.4993 11.043Z" fill="#292D32" fill-opacity="0.7"/>
<path d="M17.4993 5.20703H9.16602C8.82435 5.20703 8.54102 4.9237 8.54102 4.58203C8.54102 4.24036 8.82435 3.95703 9.16602 3.95703H17.4993C17.841 3.95703 18.1243 4.24036 18.1243 4.58203C18.1243 4.9237 17.841 5.20703 17.4993 5.20703Z" fill="#292D32" fill-opacity="0.7"/>
<path d="M3.3332 6.04089C3.17487 6.04089 3.01654 5.98255 2.89154 5.85755L2.0582 5.02422C1.81654 4.78255 1.81654 4.38255 2.0582 4.14089C2.29987 3.89922 2.69987 3.89922 2.94154 4.14089L3.3332 4.53255L5.39154 2.47422C5.6332 2.23255 6.0332 2.23255 6.27487 2.47422C6.51654 2.71589 6.51654 3.11589 6.27487 3.35755L3.77487 5.85755C3.64987 5.98255 3.49154 6.04089 3.3332 6.04089Z" fill="#292D32" fill-opacity="0.7"/>
<path d="M3.3332 11.8768C3.17487 11.8768 3.01654 11.8185 2.89154 11.6935L2.0582 10.8602C1.81654 10.6185 1.81654 10.2185 2.0582 9.97682C2.29987 9.73516 2.69987 9.73516 2.94154 9.97682L3.3332 10.3685L5.39154 8.31016C5.6332 8.06849 6.0332 8.06849 6.27487 8.31016C6.51654 8.55182 6.51654 8.95182 6.27487 9.19349L3.77487 11.6935C3.64987 11.8185 3.49154 11.8768 3.3332 11.8768Z" fill="#292D32" fill-opacity="0.7"/>
<path d="M3.3332 17.7089C3.17487 17.7089 3.01654 17.6505 2.89154 17.5255L2.0582 16.6922C1.81654 16.4505 1.81654 16.0505 2.0582 15.8089C2.29987 15.5672 2.69987 15.5672 2.94154 15.8089L3.3332 16.2005L5.39154 14.1422C5.6332 13.9005 6.0332 13.9005 6.27487 14.1422C6.51654 14.3839 6.51654 14.7839 6.27487 15.0255L3.77487 17.5255C3.64987 17.6505 3.49154 17.7089 3.3332 17.7089Z" fill="#292D32" fill-opacity="0.7"/>
</svg>
