<svg width="20" height="20" viewBox="0 0 20 20" fill="none" xmlns="http://www.w3.org/2000/svg">
<path d="M14.1665 17.2904H5.83317C2.15817 17.2904 1.0415 16.1737 1.0415 12.4987V12.082C1.0415 11.7404 1.32484 11.457 1.6665 11.457C2.4665 11.457 3.12484 10.7987 3.12484 9.9987C3.12484 9.1987 2.4665 8.54036 1.6665 8.54036C1.32484 8.54036 1.0415 8.25703 1.0415 7.91536V7.4987C1.0415 3.8237 2.15817 2.70703 5.83317 2.70703H14.1665C17.8415 2.70703 18.9582 3.8237 18.9582 7.4987V8.33203C18.9582 8.6737 18.6748 8.95703 18.3332 8.95703C17.5332 8.95703 16.8748 9.61536 16.8748 10.4154C16.8748 11.2154 17.5332 11.8737 18.3332 11.8737C18.6748 11.8737 18.9582 12.157 18.9582 12.4987C18.9582 16.1737 17.8415 17.2904 14.1665 17.2904ZM2.2915 12.632C2.30817 15.4987 2.89984 16.0404 5.83317 16.0404H14.1665C16.9498 16.0404 17.6248 15.5487 17.6998 13.0487C16.5082 12.7654 15.6248 11.6904 15.6248 10.4154C15.6248 9.14036 16.5165 8.06536 17.7082 7.78203V7.4987C17.7082 4.5237 17.1498 3.95703 14.1665 3.95703H5.83317C2.89984 3.95703 2.30817 4.4987 2.2915 7.36536C3.48317 7.6487 4.37484 8.7237 4.37484 9.9987C4.37484 11.2737 3.48317 12.3487 2.2915 12.632Z" fill="#102445" fill-opacity="0.7"/>
<path d="M8.3335 6.04036C7.99183 6.04036 7.7085 5.75703 7.7085 5.41536V3.33203C7.7085 2.99036 7.99183 2.70703 8.3335 2.70703C8.67516 2.70703 8.9585 2.99036 8.9585 3.33203V5.41536C8.9585 5.75703 8.67516 6.04036 8.3335 6.04036Z" fill="#102445" fill-opacity="0.7"/>
<path d="M8.3335 12.1482C7.99183 12.1482 7.7085 11.8648 7.7085 11.5232V8.46484C7.7085 8.12318 7.99183 7.83984 8.3335 7.83984C8.67516 7.83984 8.9585 8.12318 8.9585 8.46484V11.5232C8.9585 11.8732 8.67516 12.1482 8.3335 12.1482Z" fill="#102445" fill-opacity="0.7"/>
<path d="M8.3335 17.2904C7.99183 17.2904 7.7085 17.007 7.7085 16.6654V14.582C7.7085 14.2404 7.99183 13.957 8.3335 13.957C8.67516 13.957 8.9585 14.2404 8.9585 14.582V16.6654C8.9585 17.007 8.67516 17.2904 8.3335 17.2904Z" fill="#102445" fill-opacity="0.7"/>
</svg>
