<svg width="20" height="20" viewBox="0 0 20 20" fill="none" xmlns="http://www.w3.org/2000/svg">
<path d="M17.5001 5.60937C17.4834 5.60937 17.4584 5.60937 17.4334 5.60937C13.0251 5.1677 8.62505 5.00104 4.26672 5.4427L2.56672 5.60937C2.21672 5.6427 1.90839 5.3927 1.87505 5.0427C1.84172 4.6927 2.09172 4.3927 2.43339 4.35937L4.13339 4.1927C8.56672 3.7427 13.0584 3.9177 17.5584 4.35937C17.9001 4.3927 18.1501 4.70104 18.1167 5.0427C18.0917 5.3677 17.8167 5.60937 17.5001 5.60937Z" fill="#D14444"/>
<path d="M7.08363 4.76797C7.05029 4.76797 7.01696 4.76797 6.97529 4.75964C6.64196 4.7013 6.40863 4.3763 6.46696 4.04297L6.65029 2.9513C6.78363 2.1513 6.96696 1.04297 8.90863 1.04297H11.092C13.042 1.04297 13.2253 2.19297 13.3503 2.95964L13.5336 4.04297C13.592 4.38464 13.3586 4.70964 13.0253 4.75964C12.6836 4.81797 12.3586 4.58464 12.3086 4.2513L12.1253 3.16797C12.0086 2.44297 11.9836 2.3013 11.1003 2.3013H8.91696C8.03363 2.3013 8.01696 2.41797 7.89196 3.15964L7.70029 4.24297C7.65029 4.5513 7.38363 4.76797 7.08363 4.76797Z" fill="#D14444"/>
<path d="M12.675 18.9596H7.325C4.41666 18.9596 4.3 17.3513 4.20833 16.0513L3.66666 7.65962C3.64166 7.31795 3.90833 7.01795 4.25 6.99295C4.6 6.97628 4.89166 7.23462 4.91666 7.57628L5.45833 15.9679C5.55 17.2346 5.58333 17.7096 7.325 17.7096H12.675C14.425 17.7096 14.4583 17.2346 14.5417 15.9679L15.0833 7.57628C15.1083 7.23462 15.4083 6.97628 15.75 6.99295C16.0917 7.01795 16.3583 7.30962 16.3333 7.65962L15.7917 16.0513C15.7 17.3513 15.5833 18.9596 12.675 18.9596Z" fill="#D14444"/>
<path d="M11.3834 14.375H8.6084C8.26673 14.375 7.9834 14.0917 7.9834 13.75C7.9834 13.4083 8.26673 13.125 8.6084 13.125H11.3834C11.7251 13.125 12.0084 13.4083 12.0084 13.75C12.0084 14.0917 11.7251 14.375 11.3834 14.375Z" fill="#D14444"/>
<path d="M12.0837 11.043H7.91699C7.57533 11.043 7.29199 10.7596 7.29199 10.418C7.29199 10.0763 7.57533 9.79297 7.91699 9.79297H12.0837C12.4253 9.79297 12.7087 10.0763 12.7087 10.418C12.7087 10.7596 12.4253 11.043 12.0837 11.043Z" fill="#D14444"/>
</svg>
