<svg width="20" height="20" viewBox="0 0 20 20" fill="none" xmlns="http://www.w3.org/2000/svg">
<path d="M12.0331 6.04141C11.8748 6.04141 11.7165 5.98307 11.5915 5.85807L9.8998 4.16641L8.20814 5.85807C7.96647 6.09974 7.56647 6.09974 7.3248 5.85807C7.08314 5.61641 7.08314 5.21641 7.3248 4.97474L9.45814 2.84141C9.69981 2.59974 10.0998 2.59974 10.3415 2.84141L12.4748 4.97474C12.7165 5.21641 12.7165 5.61641 12.4748 5.85807C12.3498 5.98307 12.1915 6.04141 12.0331 6.04141Z" fill="white"/>
<path d="M9.8999 12.4398C9.55824 12.4398 9.2749 12.1565 9.2749 11.8148V3.33984C9.2749 2.99818 9.55824 2.71484 9.8999 2.71484C10.2416 2.71484 10.5249 2.99818 10.5249 3.33984V11.8148C10.5249 12.1648 10.2416 12.4398 9.8999 12.4398Z" fill="white"/>
<path d="M10.0002 17.2917C5.7085 17.2917 2.7085 14.2917 2.7085 10C2.7085 9.65833 2.99183 9.375 3.3335 9.375C3.67516 9.375 3.9585 9.65833 3.9585 10C3.9585 13.5583 6.44183 16.0417 10.0002 16.0417C13.5585 16.0417 16.0418 13.5583 16.0418 10C16.0418 9.65833 16.3252 9.375 16.6668 9.375C17.0085 9.375 17.2918 9.65833 17.2918 10C17.2918 14.2917 14.2918 17.2917 10.0002 17.2917Z" fill="white"/>
</svg>
