<svg width="20" height="20" viewBox="0 0 20 20" fill="none" xmlns="http://www.w3.org/2000/svg">
<path d="M12.0334 6.04141C11.875 6.04141 11.7167 5.98307 11.5917 5.85807L9.90005 4.16641L8.20838 5.85807C7.96672 6.09974 7.56672 6.09974 7.32505 5.85807C7.08338 5.61641 7.08338 5.21641 7.32505 4.97474L9.45838 2.84141C9.70005 2.59974 10.1 2.59974 10.3417 2.84141L12.475 4.97474C12.7167 5.21641 12.7167 5.61641 12.475 5.85807C12.35 5.98307 12.1917 6.04141 12.0334 6.04141Z" fill="#292D32"/>
<path d="M9.90002 12.4398C9.55836 12.4398 9.27502 12.1565 9.27502 11.8148V3.33984C9.27502 2.99818 9.55836 2.71484 9.90002 2.71484C10.2417 2.71484 10.525 2.99818 10.525 3.33984V11.8148C10.525 12.1648 10.2417 12.4398 9.90002 12.4398Z" fill="#292D32"/>
<path d="M10 17.2917C5.70837 17.2917 2.70837 14.2917 2.70837 10C2.70837 9.65833 2.99171 9.375 3.33337 9.375C3.67504 9.375 3.95837 9.65833 3.95837 10C3.95837 13.5583 6.44171 16.0417 10 16.0417C13.5584 16.0417 16.0417 13.5583 16.0417 10C16.0417 9.65833 16.325 9.375 16.6667 9.375C17.0084 9.375 17.2917 9.65833 17.2917 10C17.2917 14.2917 14.2917 17.2917 10 17.2917Z" fill="#292D32"/>
</svg>
