<svg width="115" height="30" viewBox="0 0 115 30" fill="none" xmlns="http://www.w3.org/2000/svg">
<g clip-path="url(#clip0_1289_2443)">
<path d="M0.152344 10.7077H5.59657V12.1959L5.66894 12.2321C7.04866 11.1057 8.93503 10.3096 11.1494 10.3096C13.1443 10.3096 14.7434 10.927 15.8675 12.1597C16.9917 13.3947 17.4282 14.9916 17.4282 17.3868V28.7118H11.9116V18.1491C11.9116 17.0973 11.7306 16.2966 11.2217 15.79C10.7128 15.2811 10.023 15.0639 9.15216 15.0639C7.84482 15.0639 6.53975 15.6452 5.66668 16.4075V28.7118H0.152344V10.7077Z" fill="black"/>
<path d="M21.6367 19.7075C21.6367 14.4081 25.8822 10.3074 31.582 10.3074C37.2818 10.3074 41.5272 14.4081 41.5272 19.7075C41.5272 25.007 37.2795 29.1077 31.582 29.1077C25.8844 29.1077 21.6367 25.007 21.6367 19.7075ZM36.0106 19.7075C36.0106 17.129 34.0881 15.0617 31.582 15.0617C29.0759 15.0617 27.1533 17.129 27.1533 19.7075C27.1533 22.286 29.0781 24.3533 31.582 24.3533C34.0858 24.3533 36.0106 22.2838 36.0106 19.7075Z" fill="black"/>
<path d="M44.6836 19.7075C44.6836 14.4081 48.929 10.3074 54.6289 10.3074C60.3287 10.3074 64.5741 14.4081 64.5741 19.7075C64.5741 25.007 60.3264 29.1077 54.6289 29.1077C48.9313 29.1077 44.6836 25.007 44.6836 19.7075ZM59.0575 19.7075C59.0575 17.129 57.135 15.0617 54.6289 15.0617C52.1227 15.0617 50.2002 17.129 50.2002 19.7075C50.2002 22.286 52.1227 24.3533 54.6289 24.3533C57.135 24.3533 59.0575 22.2838 59.0575 19.7075Z" fill="black"/>
<path d="M68.8538 0.979492H74.3704V11.6508L74.4428 11.687C75.714 10.7438 77.2746 10.3073 78.98 10.3073C83.4811 10.3073 87.3646 13.6819 87.3646 19.3455C87.3646 25.0092 83.3001 29.1099 77.6727 29.1099C75.7117 29.1099 74.0425 28.6371 72.5904 27.9473L68.8516 28.8543V0.979492H68.8538ZM77.2384 24.6066C80.0702 24.6066 81.8118 22.5392 81.8118 19.6351C81.8118 16.9118 80.2512 14.9531 77.4918 14.9531C76.2206 14.9531 75.1327 15.3896 74.3704 15.9324V23.9167C75.0965 24.3148 76.1482 24.6066 77.2384 24.6066Z" fill="black"/>
<path d="M91.2109 5.18876C91.2109 3.44716 92.663 2.03125 94.4046 2.03125C96.1462 2.03125 97.5983 3.44716 97.5983 5.18876C97.5983 6.93037 96.1462 8.34628 94.4046 8.34628C92.663 8.34628 91.2109 6.93037 91.2109 5.18876ZM91.6475 10.7076H97.1641V28.7095H91.6475V10.7076Z" fill="black"/>
<path d="M100.977 10.7077H103.953V6.27907L109.434 4.93555V10.7077H114.224V15.2812H109.434V21.6324C109.434 23.5187 110.232 24.5004 111.865 24.5004C112.7 24.5004 113.57 24.247 114.224 23.9915V28.3477C113.317 28.7843 111.829 29.11 110.304 29.11C106.02 29.11 103.953 26.6785 103.953 22.2137V15.2812H100.977V10.7077Z" fill="black"/>
<path d="M0.152344 10.7077H5.59657V12.1959L5.66894 12.2321C7.04866 11.1057 8.93503 10.3096 11.1494 10.3096C13.1443 10.3096 14.7434 10.927 15.8675 12.1597C16.9917 13.3947 17.4282 14.9916 17.4282 17.3868V28.7118H11.9116V18.1491C11.9116 17.0973 11.7306 16.2966 11.2217 15.79C10.7128 15.2811 10.023 15.0639 9.15216 15.0639C7.84482 15.0639 6.53975 15.6452 5.66668 16.4075V28.7118H0.152344V10.7077Z" fill="black"/>
<path d="M21.6367 19.7075C21.6367 14.4081 25.8822 10.3074 31.582 10.3074C37.2818 10.3074 41.5272 14.4081 41.5272 19.7075C41.5272 25.007 37.2795 29.1077 31.582 29.1077C25.8844 29.1077 21.6367 25.007 21.6367 19.7075ZM36.0106 19.7075C36.0106 17.129 34.0881 15.0617 31.582 15.0617C29.0759 15.0617 27.1533 17.129 27.1533 19.7075C27.1533 22.286 29.0781 24.3533 31.582 24.3533C34.0858 24.3533 36.0106 22.2838 36.0106 19.7075Z" fill="black"/>
<path d="M44.6836 19.7075C44.6836 14.4081 48.929 10.3074 54.6289 10.3074C60.3287 10.3074 64.5741 14.4081 64.5741 19.7075C64.5741 25.007 60.3264 29.1077 54.6289 29.1077C48.9313 29.1077 44.6836 25.007 44.6836 19.7075ZM59.0575 19.7075C59.0575 17.129 57.135 15.0617 54.6289 15.0617C52.1227 15.0617 50.2002 17.129 50.2002 19.7075C50.2002 22.286 52.1227 24.3533 54.6289 24.3533C57.135 24.3533 59.0575 22.2838 59.0575 19.7075Z" fill="black"/>
<path d="M68.8538 0.979492H74.3704V11.6508L74.4428 11.687C75.714 10.7438 77.2746 10.3073 78.98 10.3073C83.4811 10.3073 87.3646 13.6819 87.3646 19.3455C87.3646 25.0092 83.3001 29.1099 77.6727 29.1099C75.7117 29.1099 74.0425 28.6371 72.5904 27.9473L68.8516 28.8543V0.979492H68.8538ZM77.2384 24.6066C80.0702 24.6066 81.8118 22.5392 81.8118 19.6351C81.8118 16.9118 80.2512 14.9531 77.4918 14.9531C76.2206 14.9531 75.1327 15.3896 74.3704 15.9324V23.9167C75.0965 24.3148 76.1482 24.6066 77.2384 24.6066Z" fill="black"/>
<path d="M91.2109 5.18876C91.2109 3.44716 92.663 2.03125 94.4046 2.03125C96.1462 2.03125 97.5983 3.44716 97.5983 5.18876C97.5983 6.93037 96.1462 8.34628 94.4046 8.34628C92.663 8.34628 91.2109 6.93037 91.2109 5.18876ZM91.6475 10.7076H97.1641V28.7095H91.6475V10.7076Z" fill="black"/>
<path d="M100.977 10.7077H103.953V6.27907L109.434 4.93555V10.7077H114.224V15.2812H109.434V21.6324C109.434 23.5187 110.232 24.5004 111.865 24.5004C112.7 24.5004 113.57 24.247 114.224 23.9915V28.3477C113.317 28.7843 111.829 29.11 110.304 29.11C106.02 29.11 103.953 26.6785 103.953 22.2137V15.2812H100.977V10.7077Z" fill="black"/>
<path d="M91.9297 4.25004C91.9297 2.50843 93.3818 1.09253 95.1234 1.09253C96.865 1.09253 98.3171 2.50843 98.3171 4.25004C98.3171 5.99165 96.865 7.40755 95.1234 7.40755C93.3818 7.40755 91.9297 5.99165 91.9297 4.25004Z" fill="#2EE56D"/>
<path d="M0.929688 9.72816H6.37391V11.2164L6.44629 11.2526C7.826 10.1262 9.71237 9.33008 11.9267 9.33008C13.9216 9.33008 15.5207 9.94756 16.6449 11.1803C17.769 12.4152 18.2055 14.0121 18.2055 16.4073V27.7323H12.6889V17.1696C12.6889 16.1178 12.508 15.3171 11.9991 14.8105C11.4902 14.3016 10.8003 14.0844 9.92951 14.0844C8.62217 14.0844 7.31709 14.6657 6.44403 15.428V27.7323H0.929688V9.72816Z" fill="#102445"/>
<path d="M22.4141 18.728C22.4141 13.4286 26.6595 9.32788 32.3593 9.32788C38.0591 9.32788 42.3046 13.4286 42.3046 18.728C42.3046 24.0275 38.0569 28.1282 32.3593 28.1282C26.6618 28.1282 22.4141 24.0275 22.4141 18.728ZM36.788 18.728C36.788 16.1496 34.8654 14.0822 32.3593 14.0822C29.8532 14.0822 27.9307 16.1496 27.9307 18.728C27.9307 21.3065 29.8555 23.3738 32.3593 23.3738C34.8632 23.3738 36.788 21.3043 36.788 18.728Z" fill="#102445"/>
<path d="M45.4609 18.728C45.4609 13.4286 49.7064 9.32788 55.4062 9.32788C61.106 9.32788 65.3515 13.4286 65.3515 18.728C65.3515 24.0275 61.1037 28.1282 55.4062 28.1282C49.7087 28.1282 45.4609 24.0275 45.4609 18.728ZM59.8349 18.728C59.8349 16.1496 57.9123 14.0822 55.4062 14.0822C52.9001 14.0822 50.9775 16.1496 50.9775 18.728C50.9775 21.3065 52.9001 23.3738 55.4062 23.3738C57.9123 23.3738 59.8349 21.3043 59.8349 18.728Z" fill="#102445"/>
<path d="M69.6312 0H75.1478V10.6713L75.2201 10.7075C76.4913 9.76432 78.052 9.32778 79.7574 9.32778C84.2584 9.32778 88.142 12.7024 88.142 18.3661C88.142 24.0297 84.0775 28.1304 78.45 28.1304C76.489 28.1304 74.8198 27.6576 73.3677 26.9678L69.6289 27.8748V0H69.6312ZM78.0158 23.6293C80.8476 23.6293 82.5892 21.562 82.5892 18.6578C82.5892 15.9346 81.0285 13.9758 78.2691 13.9758C76.9979 13.9758 75.91 14.4124 75.1478 14.9552V22.9395C75.8738 23.3376 76.9256 23.6293 78.0158 23.6293Z" fill="#102445"/>
<path d="M92.4258 9.72803H97.9424V27.7299H92.4258V9.72803Z" fill="#102445"/>
<path d="M101.754 9.72818H104.73V5.30178L110.211 3.95825V9.72818H115.001V14.3016H110.211V20.6528C110.211 22.5392 111.009 23.5208 112.642 23.5208C113.477 23.5208 114.348 23.2675 115.001 23.0119V27.3682C114.094 27.8047 112.606 28.1304 111.082 28.1304C106.798 28.1304 104.73 25.699 104.73 21.2341V14.3016H101.754V9.72818Z" fill="#102445"/>
</g>
<defs>
<clipPath id="clip0_1289_2443">
<rect width="114.847" height="29.1075" fill="white" transform="translate(0.152344)"/>
</clipPath>
</defs>
</svg>
