<svg width="137" height="38" viewBox="0 0 137 38" fill="none" xmlns="http://www.w3.org/2000/svg">
<path d="M65.6856 11.5887H67.6277V20.6693C67.6277 24.6321 64.4259 27.8602 60.463 27.8602C56.5001 27.8602 53.2721 24.6321 53.2721 20.6693C53.2721 16.7064 56.5001 13.5046 60.463 13.5046C62.5101 13.5046 64.3734 14.3706 65.6856 15.7616V11.5887ZM65.6856 20.6693C65.6856 17.7824 63.3499 15.4467 60.463 15.4467C57.5761 15.4467 55.2142 17.7824 55.2142 20.6693C55.2142 23.5561 57.5761 25.9181 60.463 25.9181C63.3499 25.9181 65.6856 23.5561 65.6856 20.6693Z" fill="white"/>
<path d="M82.866 18.0973L75.1502 25.8131C75.4913 25.8656 75.8325 25.9181 76.1737 25.9181C78.7194 25.9181 80.8452 24.081 81.3176 21.6403H83.2859C82.8135 25.157 79.7954 27.8602 76.1737 27.8602C72.2108 27.8602 68.9828 24.6321 68.9828 20.6693C68.9828 16.7064 72.2108 13.5046 76.1737 13.5046C79.218 13.5046 81.8424 15.3942 82.866 18.0973ZM70.9248 20.6693C70.9248 22.4801 71.8434 24.0548 73.2343 24.9996L80.504 17.7299C79.5592 16.3652 77.9583 15.4467 76.1737 15.4467C73.2868 15.4467 70.9248 17.7824 70.9248 20.6693Z" fill="white"/>
<path d="M90.7885 27.8602C88.8201 27.8602 86.5106 26.7317 85.6183 23.0837C85.6183 23.0837 84.7785 19.4095 83.3351 13.6358H85.3559C87.0618 20.643 87.5342 22.6901 87.5342 22.6901C88.0328 24.7109 89.4762 25.9181 90.7885 25.9181C92.1007 25.9181 93.3604 25.4457 94.0165 22.6901C94.0165 22.6901 94.7251 19.9607 96.1423 13.6358H98.1631C96.9296 18.9371 95.9323 23.0837 95.9323 23.0837C94.935 27.2303 92.7305 27.8602 90.7885 27.8602Z" fill="white"/>
<path d="M112.109 18.0973L104.393 25.8131C104.734 25.8656 105.075 25.9181 105.417 25.9181C107.962 25.9181 110.088 24.081 110.56 21.6403H112.529C112.056 25.157 109.038 27.8602 105.417 27.8602C101.454 27.8602 98.2256 24.6321 98.2256 20.6693C98.2256 16.7064 101.454 13.5046 105.417 13.5046C108.461 13.5046 111.085 15.3942 112.109 18.0973ZM100.168 20.6693C100.168 22.4801 101.086 24.0548 102.477 24.9996L109.747 17.7299C108.802 16.3652 107.201 15.4467 105.417 15.4467C102.53 15.4467 100.168 17.7824 100.168 20.6693Z" fill="white"/>
<path d="M128.214 20.7217V27.729H126.272V20.7217C126.272 17.8349 123.937 15.4729 121.05 15.4729C118.163 15.4729 115.827 17.8349 115.827 20.7217V27.729H113.885V20.6693C113.885 16.7064 117.087 13.5308 121.05 13.5308C125.013 13.5308 128.214 16.7589 128.214 20.7217Z" fill="white"/>
<path d="M129.544 11.5363H131.487V17.7561H136.657V19.6982H131.487V20.6693C131.487 23.5561 133.822 25.8919 136.709 25.9181V27.8602C132.746 27.8602 129.544 24.7109 129.544 20.748V11.5363Z" fill="white"/>
<path d="M28.6692 0.0169969V21.5133C28.689 22.3174 28.7549 29.6992 22.7687 34.2635C18.7169 37.353 14.2828 37.3283 12.9169 37.2673C11.9546 37.1964 6.88287 36.7268 3.22326 32.3669C0.32984 28.9215 0.0480777 25.1054 0.00853212 23.8844C-0.176014 18.3332 2.6449 13.1593 7.33105 10.5015C13.4623 7.02645 19.6923 9.61504 20.3976 9.92152V17.9822C20.1685 17.7186 17.4152 14.662 13.337 15.1893C10.4634 15.5617 8.75469 17.478 8.33123 17.9822C7.90446 18.5029 6.84003 19.9414 6.6456 22.0917C6.43469 24.4067 7.36071 26.1121 7.6985 26.6757C8.17469 27.3809 9.27538 28.7996 11.2279 29.7322C12.5824 30.3781 13.8215 30.5379 14.5992 30.5758C15.3407 30.5379 17.7151 30.3221 19.8143 28.4684C21.4604 27.0151 22.0881 25.3047 22.3172 24.5435V5.79559C22.3172 3.97155 23.1509 2.22496 24.6273 1.15228C24.6899 1.10615 24.7542 1.06166 24.8201 1.01717C26.4777 -0.0851625 28.1551 -0.0225487 28.6692 0.0169969Z" fill="white"/>
<path d="M27.1947 31.7873L29.8821 37.0551H36.9954L49.6401 8.60535H42.8959L33.5187 29.4162L29.8838 22.7248C30.0502 23.7513 30.2463 25.8604 29.3565 28.2562C28.7386 29.9204 27.8323 31.0903 27.1963 31.7857L27.1947 31.7873Z" fill="#1862D4"/>
</svg>
